<svg xmlns="http://www.w3.org/2000/svg" viewBox="0 0 1200 800"><rect width="1200" height="800" fill="#d5b77d"/><g fill="none" stroke="#38271c" stroke-width="11"><path d="M70 680h1060M120 680V250h360v430M730 680V210h330v470"/><circle cx="460" cy="590" r="110"/><circle cx="790" cy="590" r="110"/><path d="M460 590l145-210 95 210H460l110-165h150l70 165M605 380l-55-72M542 306h100"/></g><g fill="#38271c"><circle cx="296" cy="326" r="38"/><path d="M254 378q42-30 84 0l30 190H222z"/><path d="M325 420l115 92-22 28-118-84z"/></g><text x="70" y="105" font-family="serif" font-size="58" fill="#38271c">MOTION DISTRICT</text></svg>
