<svg xmlns="http://www.w3.org/2000/svg" viewBox="0 0 1200 800"><rect width="1200" height="800" fill="#d9bd83"/><g fill="none" stroke="#3b2619" stroke-width="10"><path d="M80 690h1040M170 690V260h300v430M470 690V180h430v510M900 690V310h180v380"/><path d="M520 260h320M520 340h320M520 420h320"/><circle cx="685" cy="548" r="74"/><path d="M685 474v148M611 548h148"/></g><g fill="#332017"><circle cx="260" cy="378" r="38"/><path d="M218 430q42-34 84 0l40 190H180z"/><path d="M285 470l120-90 22 30-112 102z"/></g><text x="70" y="100" font-family="serif" font-size="58" fill="#3b2619">SCENT DISTRICT</text></svg>
