<svg xmlns="http://www.w3.org/2000/svg" viewBox="0 0 1200 800"><rect width="1200" height="800" fill="#d8bc84"/><g fill="none" stroke="#38271c" stroke-width="10"><path d="M80 680h1040M140 680V180h920v500M190 240h820M220 310h330v290H220zM650 310h330v290H650z"/><path d="M150 680L70 760M1050 680l80 80"/></g><g fill="#38271c"><circle cx="355" cy="372" r="38"/><path d="M313 425q42-32 84 0l35 190H278z"/><path d="M390 455l210 78-10 34-218-58z"/><circle cx="600" cy="550" r="18" fill="none" stroke="#38271c" stroke-width="9"/><path d="M600 505v-42M600 637v-42M555 550h-42M687 550h-42"/></g><text x="70" y="105" font-family="serif" font-size="58" fill="#38271c">SPARKLE COORDINATE</text></svg>
