<svg xmlns="http://www.w3.org/2000/svg" viewBox="0 0 1200 800"><rect width="1200" height="800" fill="#cfb477"/><g fill="none" stroke="#37261a" stroke-width="10"><path d="M60 665h1080M130 665L230 250l100 415M300 665l135-520 135 520M730 665l90-400 90 400M880 665l70-300 70 300"/><path d="M70 665q240-180 470-50t590-20"/><circle cx="610" cy="195" r="75"/><path d="M610 98V45M610 345v-75M513 195h-54M761 195h-54"/></g><g fill="#37261a"><circle cx="350" cy="420" r="38"/><path d="M310 470q40-30 80 0l34 180H276z"/><path d="M370 455l36-120 32 12-24 122z"/></g><text x="70" y="105" font-family="serif" font-size="58" fill="#37261a">LOOK UP FOR THE FINAL PLACE</text></svg>
